<svg width="126" height="26" viewBox="0 0 316.6 63" fill="none" xmlns="http://www.w3.org/2000/svg">
    <path d="M284.7 49v6h-26.3c.3-2.4 1.2-4.6 2.5-6.5 1.5-2 4.2-4.7 8.4-8.1 3.4-2.8 5.4-4.6 6.2-5.6 1-1.1 1.5-2.5 1.5-4 .1-1.3-.4-2.5-1.4-3.3-1.1-.8-2.4-1.2-3.7-1.2-1.3-.1-2.7.4-3.7 1.2-.9.8-1.5 2.2-1.6 4.1l-7.5-.7c.4-3.6 1.8-6.2 4.2-7.7 2.6-1.7 5.7-2.5 8.8-2.3 3.9 0 6.9.9 9.1 2.7 2.1 1.6 3.4 4.1 3.3 6.8 0 1.5-.3 3-.9 4.4-.8 1.6-1.8 3-3 4.4-1.5 1.6-3.2 3-4.9 4.4-2.4 1.9-3.9 3.1-4.5 3.7-.6.6-1.1 1.2-1.5 1.8l15-.1zm19.8 6v-6.8h-16v-5.7l16.9-21.6h6.3v21.6h4.9v5.7h-4.9V55h-7.2zm0-12.6V30.8l-9 11.6h9z" fill="#010101"/>
    <path d="M72 54.1h-9.5V20.6h34.1v33.5h-9.4v-27H72zm37.6-12.2c0-6.8 4.2-8.1 6.8-8.1s6.8 1.4 6.8 8.1c0 4.2-1.8 8.3-6.8 8.3s-6.8-4-6.8-8.3zm-8.4-12.1V63h8.7V51.7c2.9 3.2 7.7 3.4 8.9 3.4 8.4 0 13.4-5.3 13.4-13.1 0-8.1-5.1-13.1-13.3-13.1-3.5-.1-7 1.3-9.4 3.9h-.1l.1-2.9-8.3-.1zM154 51.2c-2.6 2.6-6.1 4-9.8 3.9-9.4 0-9.8-7.1-9.8-10V29.8h8.7v14.1c0 4.9 1.7 6.2 4.9 6.2 5.5 0 5.9-4.9 5.9-6.7V29.8h8.7v24.3h-8.7l.1-2.9zm21.3-16.5h4.7c2.5 0 4.6.4 4.6 2.4 0 2.2-3.3 2.3-4.8 2.3h-4.5v-4.7zm-8.7-4.9v24.3H184c6.3 0 10.7-1.2 10.7-6.2 0-3.9-2.1-5.5-7-6.4v-.1c3.2-.4 6-2.4 6-5.7 0-5.9-6.9-5.9-9.6-5.9h-17.5zm8.7 14.1h5.4c4.1 0 5 1.2 5 2.9 0 1.1-.6 2.5-4.9 2.5h-5.4l-.1-5.4zm40.4.1c0 4.9-4.3 6.1-6.4 6.1-1.6 0-4.5-.5-4.5-2.8 0-2.8 3.3-3.3 5.1-3.5 3.4-.5 3.1-.4 5.7-1.3l.1 1.5zm-10.1-6.3c0-3.6 3.8-3.9 5.4-3.9 1 0 4.6.1 4.7 3.2v.7c-.1 2.4-2.5 1.9-8.9 2.8-5.3.7-10.9 2-10.9 7.6 0 2 .9 7 10.2 7 3.6 0 7.5-.9 9.8-3.3h.1l.7 2.4h9.2v-.4c-1.7-.4-1.8-2-1.7-4.6l.1-11.1c.1-2.8-.2-9.1-13.4-9.1-3.2 0-13.4.3-13.7 8.8l8.4-.1zm19.8-3v-4.9h28.1v4.9h-9.7v19.4H235V34.7zm-182-24.2v32.9h-4.5C37 28.7 25.3 17.2 10.5 15.5v-5h32.9M53.8 0H0v25.7h6.8c12 0 21.8 9.8 21.8 21.8v6.3h25.2V0z" fill="#67ad2f"/>
    <path fill="#2a2a28" d="M0 32.9h21v21H0z"/>
</svg>