<svg width="40" height="35" viewBox="0 0 41.77 36" fill="#000" xmlns="http://www.w3.org/2000/svg">
    <path d="M6.11,36a6.08,6.08,0,0,1-5.15-3,6.84,6.84,0,0,1-.21-6.61L14.4,4.1C16,1.83,18,0,20.89,0s4.94,1.83,6.49,4.1L41,26.33a6.8,6.8,0,0,1-.16,6.72,6.05,6.05,0,0,1-5.15,3ZM20.89,24.34a2.24,2.24,0,1,1-2.25,2.24A2.23,2.23,0,0,1,20.89,24.34Zm0-2.23a1.58,1.58,0,0,1-1.5-1.5l-.75-6.72a2.28,2.28,0,0,1,2.25-2.23,2.24,2.24,0,0,1,2.23,2.23l-.75,6.72A1.54,1.54,0,0,1,20.89,22.11ZM6.11,33H35.65a3.08,3.08,0,0,0,2.62-1.55,3.87,3.87,0,0,0,.12-3.65L24.9,5.76c-1-1.4-2.16-2.79-4-2.79s-3.07,1.39-4,2.79L3.4,27.83a3.73,3.73,0,0,0,.11,3.65A3,3,0,0,0,6.11,33Z"
          fill="#eb001b"/>
</svg>