<svg width="24" height="24" viewBox="0 0 476 475.48" fill="#000" xmlns="http://www.w3.org/2000/svg">
    <path d="M199.7,3.5a240.27,240.27,0,0,1,75.7-.1c.1,15.8-.1,31.6.1,47.4a200.77,200.77,0,0,0-75.7.1C199.8,35.1,199.7,19.3,199.7,3.5Z"
          transform="translate(0 -0.45)" fill="#f40000"/>
    <path d="M199.7,81a162.33,162.33,0,0,1,75.6-.2c.1,37.2,0,74.5.1,111.7H392.9a164.4,164.4,0,0,1,6.1,32.6c.8,17.3-.5,34.7-5,51.4H275.3c0,38.5.1,77,0,115.5a164.88,164.88,0,0,1-73.3.4l-2.4-.9c.2-38.3,0-76.7.1-115-39.5,0-79,.1-118.4-.1a159.3,159.3,0,0,1-5-43.5c.3-3.6.5-7.3.6-11a173,173,0,0,1,5.8-29.5c39-.1,78.1.2,117.2-.2C199.6,155.2,199.8,118.1,199.7,81Z"
          transform="translate(0 -0.45)" fill="#f40000"/>
    <path d="M29.7,123.3c3-5.5,6.3-10.8,9.7-16,13.4,8.8,26.5,18.2,40,26.7-3.1,5.6-6.5,11-9.3,16.8C56.7,141.4,43.2,132.4,29.7,123.3Z"
          transform="translate(0 -0.45)" fill="#f40000"/>
    <path d="M396,134.1c13.5-8.8,26.7-17.9,40-26.9l.6.5c3.3,5,6.4,10.1,9.3,15.4-13.6,9.2-27.1,18.4-40.7,27.6C402.5,144.9,399.1,139.6,396,134.1Z"
          transform="translate(0 -0.45)" fill="#f40000"/>
    <path d="M102.3,149.9c13.4,8.4,26.2,17.7,39.5,26.3a6.89,6.89,0,0,1,2.3,2.2c-11.2-.1-22.4.1-33.5-.1-5.8-3.8-11.4-7.8-17.2-11.7l-.5-.4A164.14,164.14,0,0,1,102.3,149.9Z"
          transform="translate(0 -0.45)" fill="#f40000"/>
    <path d="M330.6,178.3c14.1-9.7,28.4-19.1,42.5-28.8a172,172,0,0,1,9.6,16.7c-6,4-11.9,8-17.8,12.1C353.5,178.5,342.1,178.4,330.6,178.3Z"
          transform="translate(0 -0.45)" fill="#f40000"/>
    <path d="M.2,242a235.86,235.86,0,0,1,4.3-49.6H55.2a181.26,181.26,0,0,0-4.7,52.9,203.23,203.23,0,0,0,3.8,31.1H3.6C2.5,270.3,2,264.1,1,257.9c-.3-2.1-.3-4.1-.6-6.2l-.4-.8V247A27.53,27.53,0,0,0,.2,242Z"
          transform="translate(0 -0.45)" fill="#f40000"/>
    <path d="M420.3,192.5h50.9a246.34,246.34,0,0,1,4.3,37.3c.1,6,0,12.1,0,18.1a7.72,7.72,0,0,1-.2,1.5c-1.1,9-1.7,18.1-3.4,27.1H421.5a190.53,190.53,0,0,0,3.6-49.4A182.48,182.48,0,0,0,420.3,192.5Z"
          transform="translate(0 -0.45)" fill="#f40000"/>
    <path d="M331,290.5c11.2.2,22.4,0,33.6.1,6.4,4.5,13,8.8,19.4,13.3a178.33,178.33,0,0,1-9.1,16.6c-14.6-9.6-28.9-19.5-43.5-29.1A6.31,6.31,0,0,1,331,290.5Z"
          transform="translate(0 -0.45)" fill="#f40000"/>
    <path d="M114.1,338.9c24.1-15.7,47.7-32.3,71.8-47.9.7,6.2.1,12.7.3,19,.5,1.9-1.5,2.6-2.8,3.5q-26.1,17.85-52.4,35.7a15.5,15.5,0,0,1-4.8,2.8C122.1,347.8,117.9,343.5,114.1,338.9Z"
          transform="translate(0 -0.45)" fill="#f40000"/>
    <path d="M397.8,335.9a169.59,169.59,0,0,0,9.1-16.8c13.2,9.6,27,18.5,40.5,27.8-3,5.4-6.1,10.7-9.4,15.9C424.4,354.1,411.1,345,397.8,335.9Z"
          transform="translate(0 -0.45)" fill="#f40000"/>
    <path d="M91,354.6c3.8,4.7,7.8,9.3,12,13.6-13.3,9.2-26.8,18.1-40.1,27.4-4.1-4.5-8-9.2-11.9-13.9C64,372.4,77.7,363.7,91,354.6Z"
          transform="translate(0 -0.45)" fill="#f40000"/>
    <path d="M199.7,421.7a188.69,188.69,0,0,0,75.6.1v47.5a234.48,234.48,0,0,1-75.7-.1C199.8,453.4,199.7,437.5,199.7,421.7Z"
          transform="translate(0 -0.45)" fill="#f40000"/>
    <path d="M186.2,6.1c4.5-1,9-1.8,13.5-2.6V50.9a200.78,200.78,0,0,1,75.7-.1c-.2-15.8,0-31.6-.1-47.4,4.7.7,9.3,1.6,13.8,2.6.1,16.1-.1,32.3.1,48.4A188.09,188.09,0,0,1,372,103.9c12.9-9.7,26.1-19,39-28.6a249.68,249.68,0,0,1,25.6,32.4l-.6-.5c-13.3,9-26.5,18.1-40,26.9,3.1,5.5,6.5,10.9,9.2,16.6,13.5-9.2,27.1-18.5,40.7-27.6,3,5.4,5.7,11,8.4,16.6-.6.6-1.2,1.2-1.8,1.7-13.1,9.1-26.3,18.1-39.4,27.3,1.3,3.2,2.2,6.5,3.5,9.8,17.1-.1,34.3-.1,51.4,0,1.2,4.6,2.3,9.3,3.2,14H420.3A174.66,174.66,0,0,1,425,227a186,186,0,0,0-31.6-93.4A187.3,187.3,0,0,0,212.9,52.4,187.67,187.67,0,0,0,56.4,190.9a188.42,188.42,0,0,0-5.9,54.5,184.75,184.75,0,0,1,4.7-52.9c-16.9.1-33.8,0-50.7,0,.9-4.7,2-9.4,3.2-14.1H59a78,78,0,0,1,3.4-9.6c-13.6-9.6-27.5-19-41.1-28.6,2.6-5.7,5.4-11.4,8.4-16.9,13.5,9.1,27,18.2,40.4,27.5,2.8-5.7,6.2-11.2,9.3-16.8-13.6-8.6-26.6-17.9-40-26.7a239.61,239.61,0,0,1,25-31.8c12.9,9.5,26,18.8,38.8,28.5a191.61,191.61,0,0,1,83-49.7C186.2,38.2,186.1,22.1,186.2,6.1Z"
          transform="translate(0 -0.45)" fill="#fff"/>
    <path d="M186.1,84.9c4.5-1.5,9-2.8,13.6-3.9.1,37.1-.1,74.2.1,111.3-39,.4-78.1.1-117.2.2a162.33,162.33,0,0,1,10.2-26.1l.6.3c5.7,3.9,11.4,7.9,17.2,11.7,11.2.2,22.3,0,33.5.1a6.08,6.08,0,0,0-2.3-2.2c-13.3-8.6-26.1-17.9-39.5-26.3a162.4,162.4,0,0,1,24-28.9c20.2,14,39.7,29.1,59.8,43.2C186.2,137.7,186.2,111.3,186.1,84.9Z"
          transform="translate(0 -0.45)" fill="#fff"/>
    <path d="M275.4,80.8c4.7,1.1,9.2,2.4,13.8,3.9.1,26.5,0,53.1.1,79.6L334,131.6c5.1-3.4,9.8-7.6,15.1-10.7,9.3,8.3,17.2,18.2,24.1,28.5-14.1,9.7-28.4,19.1-42.5,28.8,11.4.1,22.9.2,34.3-.1,5.9-4.1,11.8-8.1,17.8-12.1a152.71,152.71,0,0,1,10.3,26.3c-39.2.1-78.4,0-117.5,0C275.3,155.2,275.5,118,275.4,80.8Z"
          transform="translate(0 -0.45)" fill="#fff"/>
    <path d="M76.3,233c.3-3.7-.3-7.4.6-11-.1,3.6-.2,7.3-.6,11a159,159,0,0,0,5,43.4c39.5.2,79,0,118.4.1-.1,38.4.1,76.7-.1,115l2.4.9a164.88,164.88,0,0,0,73.3-.4c.1-38.5,0-77,0-115.5H394a164.94,164.94,0,0,0,5-51.4c2.7,34.1-5.5,69.3-23.8,98.3-24.1,39.2-65.7,67.2-111.3,74.4A161.48,161.48,0,0,1,76.3,233ZM86,290.5c.8,3.6,2.6,6.8,4,10.2,3.6-2.6,7.1-5.3,10.8-7.8.8-.7,2.1-1.2,2.2-2.5C97.3,290.6,91.7,290.5,86,290.5Zm245,0c.1.2.2.7.3.9,14.6,9.6,29,19.5,43.5,29.1a178.33,178.33,0,0,0,9.1-16.6c-6.4-4.6-13-8.8-19.4-13.3C353.4,290.5,342.2,290.6,331,290.5ZM114.1,338.9c3.8,4.6,8,8.8,12.2,13.1,1.8-.5,3.3-1.8,4.8-2.8,17.5-11.9,34.9-23.8,52.4-35.7,1.2-.8,3.2-1.6,2.8-3.5-.2-6.3.4-12.8-.3-19C161.8,306.7,138.2,323.2,114.1,338.9Zm175.1-34.4c-.1,27.8,0,55.6,0,83.5a161,161,0,0,0,61.4-37.5v-1.1C330.1,334.5,309.5,319.7,289.2,304.5ZM183.6,334.4q-21.3,14.85-42.8,29.6c13.4,10.5,28.9,18.3,45,23.9.7-1.9.2-4,.3-5.9.1-16.2-.2-32.4.1-48.6C185.3,333,184.4,333.9,183.6,334.4Z"
          transform="translate(0 -0.45)" fill="#fff"/>
    <path d="M471.8,276.5c1.8-9,2.3-18.1,3.4-27.1-2.1,53-23.1,104.9-58,144.8a237.58,237.58,0,0,1-239.4,74.1C120.7,453.5,69.9,416.5,38,367A236.33,236.33,0,0,1,1,257.9c1,6.2,1.4,12.4,2.6,18.6H54.3c1,4.8,2.2,9.4,3.5,14.1-17.1,0-34.3.1-51.4-.1a237.21,237.21,0,0,0,21.3,55.8c11.5-8.8,23.3-17,34.9-25.6,1.7-1.3,3.6-2.3,4.9-4.1A188.78,188.78,0,0,0,91,354.7c-13.3,9.1-26.9,17.8-40,27.2,3.9,4.7,7.8,9.4,11.9,13.9,13.3-9.3,26.8-18.3,40.1-27.4,4.3,4.4,8.8,8.6,13.5,12.7C103,390.4,89.6,399.8,76,409a236.36,236.36,0,0,0,110.2,57.8V418.4c4.5,1.3,9,2.4,13.6,3.4-.1,15.8,0,31.7,0,47.5a234.48,234.48,0,0,0,75.7.1V421.9c4.6-1,9.3-2.1,13.8-3.4.1,16.1-.1,32.2.1,48.3a238,238,0,0,0,123.8-71.7c-12.9-9.5-25.8-19-38.9-28.4a190.59,190.59,0,0,0,23.6-30.8c13.3,9.1,26.6,18.2,40.1,27,3.3-5.2,6.4-10.6,9.4-15.9-13.5-9.3-27.2-18.2-40.5-27.8a161.25,161.25,0,0,0,7.7-18.8c.2.4.5,1.3.7,1.7q20.25,13.65,40.2,27.8a227.64,227.64,0,0,0,13.4-39.3h-51c1.4-4.6,2.5-9.3,3.5-14.1Z"
          transform="translate(0 -0.45)" fill="#fff"/>
    <path d="M289.1,6A238,238,0,0,1,411,75.3c-12.9,9.6-26.1,19-39,28.6a187.17,187.17,0,0,0-82.8-49.5C289.1,38.3,289.3,22.1,289.1,6Z"
          transform="translate(0 -0.45)" fill="#062a72"/>
    <path d="M64.4,75.5A237.43,237.43,0,0,1,186.2,6.1c-.1,16.1-.1,32.1,0,48.2a191.61,191.61,0,0,0-83,49.7C90.5,94.3,77.4,85,64.4,75.5Z"
          transform="translate(0 -0.45)" fill="#062a72"/>
    <path d="M126.3,121a162.9,162.9,0,0,1,59.8-36.1c0,26.4.1,52.8,0,79.3C166.1,150,146.6,135,126.3,121Z"
          transform="translate(0 -0.45)" fill="#062a72"/>
    <path d="M289.1,84.7c22.3,7.6,43.1,19.7,59.9,36.2-5.3,3.2-10,7.3-15.1,10.7-14.9,10.9-29.8,21.7-44.7,32.7C289.1,137.8,289.2,111.3,289.1,84.7Z"
          transform="translate(0 -0.45)" fill="#062a72"/>
    <path d="M454.3,139.6A241.54,241.54,0,0,1,468,178.4c-17.1-.1-34.3-.1-51.4,0-1.3-3.2-2.3-6.5-3.5-9.8,13.1-9.2,26.2-18.2,39.4-27.3A14.06,14.06,0,0,0,454.3,139.6Z"
          transform="translate(0 -0.45)" fill="#062a72"/>
    <path d="M21.2,140.2c13.7,9.6,27.5,18.9,41.1,28.6a99,99,0,0,0-3.4,9.6c-17.1.1-34.2,0-51.3,0A244.37,244.37,0,0,1,21.2,140.2Z"
          transform="translate(0 -0.45)" fill="#062a72"/>
    <path d="M475.4,229.8l.6-.5v17.4l-.6,1.3C475.4,241.9,475.5,235.8,475.4,229.8Z"
          transform="translate(0 -0.45)" fill="#062a72"/>
    <path d="M86,290.5c5.6,0,11.3.1,16.9,0-.1,1.3-1.4,1.8-2.2,2.5-3.7,2.5-7.2,5.2-10.8,7.8C88.6,297.4,86.8,294.1,86,290.5Z"
          transform="translate(0 -0.45)" fill="#062a72"/>
    <path d="M6.4,290.5c17.1.1,34.3,0,51.4.1a197.84,197.84,0,0,0,9.7,26c-1.3,1.7-3.2,2.8-4.9,4.1-11.6,8.6-23.4,16.9-34.9,25.6A246.29,246.29,0,0,1,6.4,290.5Z"
          transform="translate(0 -0.45)" fill="#062a72"/>
    <path d="M417.9,290.5c17,.1,34,0,51,0a216.81,216.81,0,0,1-13.4,39.3q-20-14.1-40.2-27.8c-.2-.4-.5-1.3-.7-1.7C415.9,297.1,416.9,293.8,417.9,290.5Z"
          transform="translate(0 -0.45)" fill="#062a72"/>
    <path d="M289.2,304.5c20.3,15.2,40.9,30,61.4,44.9v1.1A161.46,161.46,0,0,1,289.2,388C289.2,360.1,289.1,332.3,289.2,304.5Z"
          transform="translate(0 -0.45)" fill="#062a72"/>
    <path d="M183.6,334.4c.8-.5,1.6-1.4,2.7-1-.3,16.2,0,32.4-.1,48.6-.1,1.9.3,4-.3,5.9-16.1-5.6-31.6-13.4-45-23.9Q162.35,349.3,183.6,334.4Z"
          transform="translate(0 -0.45)" fill="#062a72"/>
    <path d="M289.2,418.5a188.49,188.49,0,0,0,85-51.7c13,9.4,25.9,18.9,38.9,28.4a238,238,0,0,1-123.8,71.7C289,450.7,289.2,434.6,289.2,418.5Z"
          transform="translate(0 -0.45)" fill="#062a72"/>
    <path d="M116.4,381a187.83,187.83,0,0,0,69.7,37.4v48.4A238.19,238.19,0,0,1,75.9,409C89.6,399.7,102.9,390.2,116.4,381Z"
          transform="translate(0 -0.45)" fill="#062a72"/>
</svg>
