<svg width="73" height="29" viewBox="0 0 62.96 25" fill="none" xmlns="http://www.w3.org/2000/svg">
    <path d="M29.77,12.21v7.33H27.45V1.44h6.16a5.61,5.61,0,0,1,4,1.57,5.05,5.05,0,0,1,1.67,3.82,5,5,0,0,1-1.67,3.84,5.56,5.56,0,0,1-4,1.54Zm0-8.54V10h3.9A3,3,0,0,0,36,9.05,3.08,3.08,0,0,0,36,4.69L36,4.63a3.06,3.06,0,0,0-2.3-1Z"
          fill="#5f6368"/>
    <path d="M44.63,6.76A5.75,5.75,0,0,1,48.7,8.13a4.88,4.88,0,0,1,1.49,3.78v7.63H48V17.82h-.1A4.45,4.45,0,0,1,44,20a5,5,0,0,1-3.43-1.22,3.87,3.87,0,0,1-1.38-3,3.69,3.69,0,0,1,1.46-3.06,6.17,6.17,0,0,1,3.88-1.13,6.94,6.94,0,0,1,3.41.75v-.53a2.66,2.66,0,0,0-1-2.05,3.29,3.29,0,0,0-2.25-.85,3.57,3.57,0,0,0-3.08,1.64l-2-1.29A5.7,5.7,0,0,1,44.63,6.76Zm-3,9a1.87,1.87,0,0,0,.78,1.52,2.79,2.79,0,0,0,1.8.6,3.73,3.73,0,0,0,2.62-1.08A3.41,3.41,0,0,0,48,14.24a4.71,4.71,0,0,0-3-.87,4,4,0,0,0-2.36.68,2.06,2.06,0,0,0-1,1.7Z"
          fill="#5f6368"/>
    <path d="M63,7.16,55.19,25h-2.4l2.88-6.24-5.1-11.6H53.1l3.69,8.89h.05l3.59-8.89Z" fill="#5f6368"/>
    <path d="M20.38,10.63a12.52,12.52,0,0,0-.18-2.11H10.4v4H16a4.78,4.78,0,0,1-2.07,3.16v2.6h3.35A10.17,10.17,0,0,0,20.38,10.63Z"
          fill="#4285f4"/>
    <path d="M10.4,20.79a10,10,0,0,0,6.89-2.51l-3.35-2.6a6.3,6.3,0,0,1-9.38-3.29H1.11v2.68A10.39,10.39,0,0,0,10.4,20.79Z"
          fill="#34a853"/>
    <path d="M4.56,12.39a6.17,6.17,0,0,1,0-4V5.73H1.11a10.38,10.38,0,0,0,0,9.34Z" fill="#fbbc04"/>
    <path d="M10.4,4.12a5.57,5.57,0,0,1,4,1.56h0l3-3A10,10,0,0,0,10.4,0,10.4,10.4,0,0,0,1.11,5.73L4.56,8.41A6.2,6.2,0,0,1,10.4,4.12Z"
          fill="#ea4335"/>
</svg>
