<svg width="115" height="20" viewBox="0 0 200 37.39" fill="none" xmlns="http://www.w3.org/2000/svg">
    <path d="M76.3.19a21,21,0,0,1,5.32,0c-1.08,1.73-2.23,3.43-3.34,5.15A13.46,13.46,0,0,0,69,9.81a13.06,13.06,0,0,0-3.19,6.79,13.43,13.43,0,0,0,11,15.32,13.89,13.89,0,0,0,6-.35,13.42,13.42,0,0,0,8.33-18.75l0-.12,3.16-4.84a18.4,18.4,0,0,1,3.44,10.51A18.73,18.73,0,1,1,76.3.19Z"
          fill="#00498f"/>
    <path d="M116.74.86a18.29,18.29,0,0,1,11.06,2c0,2.61,0,5.23,0,7.84a11.46,11.46,0,0,0-3.94-2.92,11.1,11.1,0,0,0-10.79,1,11.94,11.94,0,0,0-4.87,8.42,13.61,13.61,0,0,0,.42,5.35,11.48,11.48,0,0,0,15.95,6.85,11.53,11.53,0,0,0,3.23-2.58c0,2.6,0,5.22,0,7.82a18.24,18.24,0,0,1-9.14,2,19.59,19.59,0,0,1-5.84-1,17.58,17.58,0,0,1-8-5.84,16.35,16.35,0,0,1-3.25-7,20.24,20.24,0,0,1-.4-4.26,18.87,18.87,0,0,1,2.43-9.49A16.48,16.48,0,0,1,111.84,2,18.41,18.41,0,0,1,116.74.86Z"
          fill="#00498f"/>
    <path d="M0,1.49H27.52v34.4H20.63V7.55H6.9V35.89H0Z" fill="#00498f"/>
    <path d="M34.37,1.49h9.87A21,21,0,0,1,49.43,2,9.92,9.92,0,0,1,55.29,6.3a12.19,12.19,0,0,1,1.29,9.26,9.3,9.3,0,0,1-3.21,5.22,11.11,11.11,0,0,1-5,2.15,51.58,51.58,0,0,1-7.14.22V35.89H34.37Zm6.86,5.78v10.1c1.24,0,2.49,0,3.72,0A5.75,5.75,0,0,0,48,16.41a5.21,5.21,0,0,0,1.06-7.09,4.76,4.76,0,0,0-2.86-1.77A23.74,23.74,0,0,0,41.23,7.27Z"
          fill="#00498f"/>
    <path d="M134.66,1.52h22.13V7.57h-7.66V35.88h-6.87V7.53h-7.6C134.65,5.55,134.66,3.53,134.66,1.52Z"
          fill="#00498f"/>
    <path d="M163.67,1.49c2.3,0,4.59,0,6.89,0V35.88h-6.89Z" fill="#00498f"/>
    <path d="M177.42,1.49h10.81a14.57,14.57,0,0,1,6.05,1.13A10,10,0,0,1,199.19,8a12.84,12.84,0,0,1,.58,7A10,10,0,0,1,197,20.28a11.24,11.24,0,0,1-7,2.79c-1.9.12-3.79,0-5.69.06V35.88h-6.89Q177.43,18.7,177.42,1.49Zm6.88,5.78v10.1a41.62,41.62,0,0,0,4.74-.13,5.1,5.1,0,0,0,2.73-1.45A5.21,5.21,0,0,0,191.91,9a5.07,5.07,0,0,0-3.32-1.62A30.77,30.77,0,0,0,184.3,7.27Z"
          fill="#00498f"/>
    <path d="M77.49,10.79a8.4,8.4,0,0,1,4.39.34,8.22,8.22,0,0,1,4.39,3.77,8.23,8.23,0,0,1-1.11,9.39,8.21,8.21,0,0,1-6,2.69v-4.7a3.51,3.51,0,0,0,3.11-2,3.47,3.47,0,1,0-6.6-1.46c-1.58,0-3.14,0-4.71,0a8.18,8.18,0,0,1,6.57-8Z"
          fill="#feca01"/>
</svg>
