<svg width="24" height="24" viewBox="0 0 476 475.55" fill="#000" xmlns="http://www.w3.org/2000/svg">
    <path d="M178.3,8.2a241.18,241.18,0,0,1,113-2c.6.1,1.8.4,2.4.5l1.6.4a21,21,0,0,0,2.4.6A238.94,238.94,0,0,1,416.3,80c38.5,43,60.6,100.4,60,158.1h-50a140.54,140.54,0,0,0-.9-17.2,184.63,184.63,0,0,0-4.2-25.6c-.1-.6-.5-1.8-.6-2.3l-.4-1.6c-.1-.6-.5-1.8-.6-2.4A187.88,187.88,0,0,0,275.5,54.4a188.86,188.86,0,0,0-77.8.9c-.6.2-1.8.4-2.4.6l-1.7.4a21,21,0,0,1-2.4.6A187.36,187.36,0,0,0,58.7,185.6a195,195,0,0,0-7.6,52.6H1.1c-.1-4,.2-8.1.2-12.1.4-13.4,2.5-26.7,5.2-39.8a21,21,0,0,1,.6-2.4c.1-.4.3-1.3.4-1.7a21,21,0,0,0,.6-2.4A238.63,238.63,0,0,1,178.3,8.2Z"
          transform="translate(-0.5 -0.45)" fill="#0058be"/>
    <path d="M203.6,80.3a162,162,0,0,1,197,158H77.2c.2-4.3-.4-8.7.8-12.9-.4-2.8.2-5.6.4-8.3a160.11,160.11,0,0,1,34.9-80.9,20.47,20.47,0,0,1,3.5-3.7l-.6-.3c1.2-.4,1.8-1.6,2.7-2.4,20.9-23,48.4-40.1,78.6-47.7a16.55,16.55,0,0,1,2.1-.6l2-.4A3.86,3.86,0,0,1,203.6,80.3Z"
          transform="translate(-0.5 -0.45)" fill="#0058be"/>
    <path d="M291.3,6.2c.6.1,1.8.4,2.4.5C293.1,6.6,291.9,6.3,291.3,6.2Z" transform="translate(-0.5 -0.45)"
          fill="#57614c"/>
    <path d="M295.4,7.1a21,21,0,0,0,2.4.6A21,21,0,0,1,295.4,7.1Z" transform="translate(-0.5 -0.45)"
          fill="#57614c"/>
    <path d="M195.4,55.8c.6-.2,1.8-.4,2.4-.6l-.5.7A12.75,12.75,0,0,1,195.4,55.8Z"
          transform="translate(-0.5 -0.45)" fill="#57614c"/>
    <path d="M191.3,56.8a21,21,0,0,0,2.4-.6A21,21,0,0,1,191.3,56.8Z" transform="translate(-0.5 -0.45)"
          fill="#57614c"/>
    <path d="M201.7,79.9l1.1-.3.8.6c-.5.1-1.6.4-2.1.5Z" transform="translate(-0.5 -0.45)" fill="#57614c"/>
    <path d="M197.7,80.9l1.1-.3.8.6a16.55,16.55,0,0,1-2.1.6Z" transform="translate(-0.5 -0.45)" fill="#57614c"/>
    <path d="M7.5,180.2l.7-.5c-.1.6-.5,1.8-.6,2.4A12.1,12.1,0,0,0,7.5,180.2Z" transform="translate(-0.5 -0.45)"
          fill="#57614c"/>
    <path d="M6.7,186.2a21,21,0,0,1,.6-2.4A21,21,0,0,0,6.7,186.2Z" transform="translate(-0.5 -0.45)"
          fill="#57614c"/>
    <path d="M419.6,188.9a21,21,0,0,1,.6,2.4l-.7-.5A11.48,11.48,0,0,0,419.6,188.9Z"
          transform="translate(-0.5 -0.45)" fill="#57614c"/>
    <path d="M420.6,192.9c.1.6.5,1.8.6,2.3l-.8-.4A11.08,11.08,0,0,0,420.6,192.9Z"
          transform="translate(-0.5 -0.45)" fill="#57614c"/>
    <path d="M77.4,224c.3-2.4,0-4.9,1.1-7.1-.2,2.8-.8,5.6-.4,8.3-1.2,4.2-.7,8.6-.8,12.9a177.13,177.13,0,0,0,2.2,27.2c-1.5-5.3-1.7-10.8-2.1-16.2-1.2-7.9-.1-16-.6-23.9A6.72,6.72,0,0,1,77.4,224Z"
          transform="translate(-0.5 -0.45)" fill="#57614c"/>
    <path d="M425.4,220.9a141.59,141.59,0,0,1,.9,17.2,122.49,122.49,0,0,1-.9,17.1C425.9,243.8,425.9,232.4,425.4,220.9Z"
          transform="translate(-0.5 -0.45)" fill="#57614c"/>
    <path d="M.5,225.3l1,.7c0,4-.3,8.1-.2,12.1a62.57,62.57,0,0,1-.1,7.5l-.7-.9Z"
          transform="translate(-0.5 -0.45)" fill="#57614c"/>
    <path d="M219.8,475a57.2,57.2,0,0,1,11.7,1H220.3Z" transform="translate(-0.5 -0.45)" fill="#57614c"/>
    <path d="M1.3,238.2h50a187.55,187.55,0,0,0,374.3,17,122.49,122.49,0,0,0,.9-17.1h50a234.21,234.21,0,0,1-19.7,95.1A238,238,0,0,1,282.6,471.8c-11.9,2.4-23.9,3.1-35.9,4.2h-15a57.2,57.2,0,0,0-11.7-1c-56-4-109.9-29.3-149.4-69A237,237,0,0,1,1.3,245.6C1.4,243.2,1.4,240.7,1.3,238.2Z"
          transform="translate(-0.5 -0.45)" fill="gold"/>
    <path d="M77.2,238.2H400.6a166.9,166.9,0,0,1-7.2,47.6,161.75,161.75,0,0,1-314-20.5A175.84,175.84,0,0,1,77.2,238.2Z"
          transform="translate(-0.5 -0.45)" fill="gold"/>
</svg>
